<svg width="14" height="15" viewBox="0 0 14 15" fill="none" xmlns="http://www.w3.org/2000/svg">
<path d="M3.06811 1.36361C2.55676 1.36361 2.14484 1.64769 1.83235 2.21586C1.51985 2.78403 1.36361 3.40902 1.36361 4.09082C1.36361 4.80671 1.46304 5.44022 1.6619 5.99134C1.86075 6.54247 2.04541 6.95439 2.21586 7.22711L4.09082 6.85212C4.23854 6.48849 4.38911 6.07373 4.54251 5.60783C4.69592 5.14193 4.77262 4.63626 4.77262 4.09082C4.77262 3.40902 4.61638 2.78403 4.30388 2.21586C3.99139 1.64769 3.57947 1.36361 3.06811 1.36361ZM4.00559 10.227C4.2215 10.227 4.40331 10.1475 4.55104 9.98842C4.69876 9.82933 4.77262 9.60774 4.77262 9.32366C4.77262 9.13048 4.72717 8.93162 4.63626 8.72708C4.54535 8.52254 4.45445 8.34072 4.36354 8.18164L2.72721 8.52254C2.72721 8.97707 2.82664 9.37479 3.0255 9.71569C3.22436 10.0566 3.55106 10.227 4.00559 10.227ZM10.5679 4.77262C10.0566 4.77262 9.64467 5.05671 9.33218 5.62488C9.01969 6.19304 8.86344 6.81803 8.86344 7.49983C8.86344 8.04528 8.94014 8.54811 9.09355 9.00832C9.24696 9.46854 9.39752 9.88614 9.54524 10.2611L11.4202 10.6361C11.5907 10.3634 11.7753 9.95433 11.9742 9.40888C12.173 8.86344 12.2725 8.22709 12.2725 7.49983C12.2725 6.81803 12.1162 6.19304 11.8037 5.62488C11.4912 5.05671 11.0793 4.77262 10.5679 4.77262ZM9.63047 13.6361C10.085 13.6361 10.4117 13.4656 10.6106 13.1247C10.8094 12.7838 10.9088 12.3861 10.9088 11.9316L9.27252 11.5907C9.18162 11.7497 9.09071 11.9316 8.9998 12.1361C8.90889 12.3406 8.86344 12.5395 8.86344 12.7327C8.86344 12.9599 8.93446 13.1673 9.0765 13.3548C9.21855 13.5423 9.4032 13.6361 9.63047 13.6361ZM4.00559 11.5907C3.13061 11.5907 2.46585 11.2668 2.01132 10.6191C1.55678 9.97137 1.34088 9.24411 1.36361 8.43731L1.05679 7.9771C0.931798 7.78392 0.724416 7.34643 0.434649 6.66463C0.144883 5.98282 0 5.12489 0 4.09082C0 2.92039 0.289766 1.94598 0.869299 1.16759C1.44883 0.389196 2.18177 0 3.06811 0C4.034 0 4.78683 0.428968 5.32659 1.2869C5.86635 2.14484 6.13623 3.07948 6.13623 4.09082C6.13623 4.74989 6.04532 5.35784 5.86351 5.91464C5.68169 6.47145 5.52261 6.9203 5.38624 7.2612L5.52261 7.48279C5.61351 7.64188 5.73851 7.89471 5.8976 8.2413C6.05668 8.58788 6.13623 8.94867 6.13623 9.32366C6.13623 9.97137 5.93453 10.5111 5.53113 10.9429C5.12773 11.3747 4.61922 11.5907 4.00559 11.5907ZM9.63047 14.9997C9.01685 14.9997 8.50833 14.7838 8.10493 14.352C7.70153 13.9201 7.49983 13.3804 7.49983 12.7327C7.49983 12.3577 7.57938 11.9969 7.73847 11.6503C7.89755 11.3037 8.02255 11.0509 8.11346 10.8918L8.24982 10.6702C8.11346 10.3293 7.95437 9.88046 7.77256 9.32366C7.59074 8.76685 7.49983 8.15891 7.49983 7.49983C7.49983 6.48849 7.76971 5.55385 8.30947 4.69592C8.84924 3.83798 9.60206 3.40902 10.5679 3.40902C11.4543 3.40902 12.1872 3.79821 12.7668 4.5766C13.3463 5.355 13.6361 6.32941 13.6361 7.49983C13.6361 8.5339 13.4912 9.389 13.2014 10.0651C12.9116 10.7412 12.7043 11.1759 12.5793 11.3691L12.2725 11.8463C12.2838 12.6531 12.0651 13.3804 11.6162 14.0281C11.1674 14.6758 10.5054 14.9997 9.63047 14.9997Z" fill="#1C1B1F"/>
</svg>
