<svg width="14" height="14" viewBox="0 0 14 14" fill="none" xmlns="http://www.w3.org/2000/svg">
<path d="M7.06965 13.9993C6.0897 13.9993 5.171 13.8127 4.31354 13.4393C3.45608 13.066 2.70945 12.5615 2.07365 11.9257C1.43785 11.2899 0.933288 10.5432 0.559973 9.68578C0.186658 8.82832 0 7.90961 0 6.92966C0 5.22641 0.542473 3.7244 1.62742 2.42363C2.71237 1.12286 4.0948 0.314985 5.77472 0C5.56473 1.15494 5.62889 2.28364 5.96721 3.38608C6.30553 4.48853 6.88883 5.4539 7.71712 6.28219C8.54542 7.11049 9.51079 7.69379 10.6132 8.03211C11.7157 8.37042 12.8444 8.43459 13.9993 8.2246C13.696 9.90452 12.891 11.2869 11.5844 12.3719C10.2778 13.4568 8.7729 13.9993 7.06965 13.9993ZM7.06965 12.5994C8.09627 12.5994 9.04706 12.3427 9.92202 11.8294C10.797 11.3161 11.4853 10.6103 11.9869 9.71202C10.9836 9.6187 10.0328 9.36496 9.13455 8.95081C8.23626 8.53667 7.4313 7.97378 6.71967 7.26214C6.00804 6.55051 5.44223 5.74555 5.02225 4.84726C4.60228 3.94897 4.35145 2.99819 4.26979 1.9949C3.3715 2.49654 2.66862 3.18776 2.16114 4.06855C1.65367 4.94934 1.39993 5.90305 1.39993 6.92966C1.39993 8.50458 1.95115 9.84327 3.0536 10.9457C4.15605 12.0482 5.49473 12.5994 7.06965 12.5994Z" fill="#1C1B1F"/>
</svg>
