<svg width="12" height="14" viewBox="0 0 12 14" fill="none" xmlns="http://www.w3.org/2000/svg">
<path d="M5.4 4.66667C4.78889 4.66667 4.18889 4.75278 3.6 4.925C3.01111 5.09722 2.46667 5.35556 1.96667 5.7L2.66667 12H9.33333L10.0667 5.33333H9.6C9.17778 5.33333 8.79445 5.30278 8.45 5.24167C8.10556 5.18056 7.63333 5.06111 7.03333 4.88333C6.77778 4.80556 6.51111 4.75 6.23333 4.71667C5.95556 4.68333 5.67778 4.66667 5.4 4.66667ZM1.8 4.25C2.36667 3.95 2.95278 3.72222 3.55833 3.56667C4.16389 3.41111 4.78333 3.33333 5.41667 3.33333C5.75 3.33333 6.08056 3.35556 6.40833 3.4C6.73611 3.44444 7.06111 3.51111 7.38333 3.6C7.93889 3.75556 8.36389 3.86111 8.65833 3.91667C8.95278 3.97222 9.26667 4 9.6 4H10.2167L10.5 1.33333H1.5L1.8 4.25ZM2.65 13.3333C2.30556 13.3333 2.00833 13.2222 1.75833 13C1.50833 12.7778 1.36667 12.4944 1.33333 12.15L0 0H12L10.6667 12.15C10.6333 12.4944 10.4917 12.7778 10.2417 13C9.99167 13.2222 9.69444 13.3333 9.35 13.3333H2.65Z" fill="#1C1B1F"/>
</svg>
