<svg width="11" height="12" viewBox="0 0 11 12" fill="none" xmlns="http://www.w3.org/2000/svg">
<path d="M1.33129 10.6667H9.33129L8.38129 4H2.28129L1.33129 10.6667ZM5.33129 2.66667C5.52018 2.66667 5.67851 2.60278 5.80629 2.475C5.93406 2.34722 5.99795 2.18889 5.99795 2C5.99795 1.81111 5.93406 1.65278 5.80629 1.525C5.67851 1.39722 5.52018 1.33333 5.33129 1.33333C5.1424 1.33333 4.98406 1.39722 4.85629 1.525C4.72851 1.65278 4.66462 1.81111 4.66462 2C4.66462 2.18889 4.72851 2.34722 4.85629 2.475C4.98406 2.60278 5.1424 2.66667 5.33129 2.66667ZM7.21462 2.66667H8.38129C8.71462 2.66667 9.00351 2.77778 9.24795 3C9.4924 3.22222 9.6424 3.49444 9.69795 3.81667L10.648 10.4833C10.7035 10.8833 10.6007 11.2361 10.3396 11.5417C10.0785 11.8472 9.7424 12 9.33129 12H1.33129C0.920175 12 0.584064 11.8472 0.322953 11.5417C0.0618421 11.2361 -0.0409357 10.8833 0.0146199 10.4833L0.96462 3.81667C1.02018 3.49444 1.17018 3.22222 1.41462 3C1.65906 2.77778 1.94795 2.66667 2.28129 2.66667H3.44795C3.41462 2.55556 3.38684 2.44722 3.36462 2.34167C3.3424 2.23611 3.33129 2.12222 3.33129 2C3.33129 1.44444 3.52573 0.972222 3.91462 0.583333C4.30351 0.194444 4.77573 0 5.33129 0C5.88684 0 6.35906 0.194444 6.74795 0.583333C7.13684 0.972222 7.33129 1.44444 7.33129 2C7.33129 2.12222 7.32018 2.23611 7.29795 2.34167C7.27573 2.44722 7.24795 2.55556 7.21462 2.66667Z" fill="#1C1B1F"/>
</svg>
